<mxfile host="app.diagrams.net" modified="2024-06-17T12:46:58.231Z" agent="Mozilla/5.0 (Macintosh; Intel Mac OS X 10_15_7) AppleWebKit/605.1.15 (KHTML, like Gecko) Version/17.3 Safari/605.1.15" version="24.5.4" etag="XMBs24nkT-6btMsNJtOJ" type="github">
  <diagram name="Page-1" id="poTmpv_S6hI2Op-7eqGs">
    <mxGraphModel>
      <root>
        <mxCell id="0" />
        <mxCell id="1" parent="0" />
      </root>
    </mxGraphModel>
  </diagram>
</mxfile>
